<svg width="20" height="22" viewBox="0 0 20 22" fill="none" xmlns="http://www.w3.org/2000/svg">
<path d="M19.9999 7.85366C19.9948 6.50239 19.5285 5.19363 18.6786 4.14323C18.9672 2.94264 18.877 1.68196 18.421 0.534312C18.3311 0.313389 18.1468 0.144486 17.9191 0.0738396C17.5967 -0.0366259 16.3768 -0.243739 13.8912 1.36723V1.36756C12.8218 1.0853 11.7192 0.95204 10.6136 0.971629C9.5064 0.951721 8.40183 1.08498 7.3312 1.36756C4.78099 -0.280385 3.45513 -0.0135506 3.1883 0.0647896C2.95934 0.138323 2.77535 0.310759 2.6864 0.534247C2.22914 1.67803 2.1357 2.93517 2.41956 4.1342C1.54162 5.17909 1.0738 6.50751 1.10298 7.87193C1.10298 12.9635 4.0167 14.5009 6.68676 15.0442C6.54964 15.3794 6.45524 15.7304 6.40611 16.0891C6.40129 16.1273 6.40129 16.1662 6.40611 16.2044V17.6128C3.97567 17.8154 3.4554 16.3929 3.40468 16.2317V16.232C3.3928 16.1944 3.37899 16.1575 3.36294 16.1212C2.89348 15.1637 2.06724 14.428 1.06123 14.0728C0.639295 13.9319 0.182635 14.1596 0.041738 14.5815C-0.0992251 15.0034 0.128438 15.4601 0.550374 15.6013C1.10781 15.8026 1.57283 16.2002 1.85791 16.7197C2.1803 17.7646 3.49689 19.4173 6.39679 19.233V20.5589C6.39679 21.0039 6.7574 21.3645 7.20246 21.3645C7.6472 21.3645 8.00812 21.0039 8.00812 20.5589V16.264C8.06913 15.7949 8.27336 15.3563 8.59254 15.0072C8.82116 14.7934 8.90402 14.4662 8.80511 14.1691C8.70621 13.8724 8.44323 13.6602 8.13239 13.6262C5.3243 13.2993 2.72814 12.3742 2.72814 7.83974H2.72782C2.69025 6.7332 3.11765 5.66134 3.9063 4.88427C4.12016 4.65435 4.19079 4.32586 4.09061 4.0282C3.81927 3.2402 3.80162 2.387 4.03988 1.58839C5.02821 1.81156 5.95654 2.24666 6.76033 2.86353C6.9697 3.00193 7.23076 3.03758 7.46934 2.96019C8.49236 2.64871 9.55847 2.50421 10.6274 2.53215C11.6945 2.50422 12.7593 2.64872 13.7807 2.96019C14.0193 3.03822 14.2807 3.00258 14.4897 2.86353C15.2639 2.27012 16.1501 1.83952 17.0952 1.59743C17.3299 2.40502 17.309 3.26526 17.0351 4.06034C16.9436 4.3304 17.0033 4.62903 17.1918 4.84288C17.9538 5.65657 18.3854 6.72518 18.4024 7.83978C18.4024 12.3649 15.6727 13.3041 12.9982 13.6262C12.6703 13.6628 12.3983 13.8963 12.3129 14.2148C12.2275 14.5333 12.346 14.8715 12.6116 15.0673C12.897 15.2838 13.2284 15.8913 13.2284 16.9085V20.5544C13.2284 20.9995 13.589 21.3601 14.0338 21.3601C14.4788 21.3601 14.8394 20.9995 14.8394 20.5544V16.9085C14.8478 16.2673 14.7306 15.6308 14.4942 15.0349C16.6578 14.5747 20 13.1522 20 7.85361L19.9999 7.85366Z" fill="#FD4370"/>
</svg>
