<svg width="22" height="22" viewBox="0 0 22 22" fill="none" xmlns="http://www.w3.org/2000/svg">
<path d="M3.55989 0.679932C1.97503 0.679932 0.679932 1.97503 0.679932 3.55989C0.679932 5.14492 1.97503 6.44002 3.55989 6.44002C5.14492 6.44002 6.44002 5.14492 6.44002 3.55989C6.44002 1.97503 5.14492 0.679932 3.55989 0.679932ZM3.55989 1.63985C4.62596 1.63985 5.47993 2.49382 5.47993 3.55989C5.47993 4.62596 4.62596 5.47993 3.55989 5.47993C2.49382 5.47993 1.63985 4.62596 1.63985 3.55989C1.63985 2.49382 2.49382 1.63985 3.55989 1.63985ZM16.0399 6.91984C14.5051 6.91984 13.462 7.57243 12.68 8.32243V7.87997C12.68 7.62869 12.4513 7.40002 12.2 7.40002H8.35994C8.10865 7.40002 7.87998 7.6287 7.87998 7.87997V20.84C7.87998 21.0913 8.10866 21.3199 8.35994 21.3199H12.4399C12.6912 21.3199 12.9199 21.0912 12.9199 20.84V13.64C12.9199 13.0324 13.1114 12.4567 13.3923 12.065C13.6735 11.6732 14.0132 11.4801 14.3599 11.4801H14.8399C15.1866 11.4801 15.5263 11.6732 15.8073 12.065C16.0886 12.4569 16.2799 13.0326 16.2799 13.6401V20.8401C16.2799 21.0914 16.5086 21.3201 16.7599 21.3201H20.8398C21.0911 21.3201 21.3198 21.0914 21.3198 20.8401L21.3199 12.4401C21.3199 10.84 21.0199 9.45086 20.165 8.45006C19.3099 7.44926 17.9352 6.9201 16.04 6.9201L16.0399 6.91984ZM1.59489 7.39997C1.35884 7.42224 1.15877 7.64289 1.1598 7.87993V20.8399C1.1598 21.0912 1.38848 21.3199 1.63976 21.3199H5.71972C5.971 21.3199 6.19968 21.0912 6.19968 20.8399V7.87993C6.19968 7.62865 5.971 7.39997 5.71972 7.39997H1.59472H1.59489ZM16.0399 7.87993C17.7617 7.87993 18.7893 8.32256 19.43 9.07239C20.0705 9.82239 20.3598 10.9629 20.3598 12.44V20.36H17.2397V13.64C17.2399 12.8381 17.0003 12.0858 16.5873 11.5099C16.1743 10.9341 15.5567 10.52 14.8399 10.52H14.3599C13.6429 10.52 13.0255 10.9341 12.6125 11.5101C12.1994 12.0858 11.9598 12.8381 11.9598 13.64V16.52H11.6749C11.4236 16.5317 11.2055 16.7711 11.2173 17.0226C11.2291 17.2738 11.4685 17.4918 11.7199 17.4799H11.96V18.4398H11.6751C11.4238 18.4516 11.2056 18.691 11.2175 18.9424C11.2291 19.1939 11.4685 19.4118 11.7199 19.4H11.96V20.3599H8.83995V8.35989H11.7199V9.55989C11.7197 9.75727 11.8547 9.94778 12.041 10.0131C12.2273 10.0785 12.4517 10.0142 12.5749 9.85988C13.3808 8.85526 14.2394 7.87992 16.04 7.87992L16.0399 7.87993ZM2.11989 8.35989H5.23993V16.5199H4.955C4.70372 16.5316 4.48559 16.771 4.49746 17.0225C4.50901 17.2739 4.74858 17.4919 4.99987 17.48H5.23994V18.4399H4.95501C4.70373 18.4516 4.4856 18.691 4.49747 18.9425C4.50902 19.194 4.74859 19.4119 4.99988 19.4001H5.23995V20.36H2.11991L2.11989 8.35989Z" fill="#FD4370"/>
</svg>
