<svg width="16" height="16" viewBox="0 0 16 16" fill="none" xmlns="http://www.w3.org/2000/svg">
<path d="M0.671314 0C0.300114 0 0 0.300114 0 0.671314V15.3287C0 15.6999 0.300114 16.0001 0.671314 16.0001H15.3287C15.6999 16.0001 16.0001 15.6999 16.0001 15.3287V8.05446C16.0001 7.68326 15.6999 7.38314 15.3287 7.38314C14.9575 7.38314 14.6574 7.68326 14.6574 8.05446V14.6576H1.34257V1.34274H7.94429C8.31549 1.34274 8.6156 1.04263 8.6156 0.671429C8.61549 0.300229 8.31537 0.000114286 7.94417 0.000114286L0.671314 0ZM11.3519 0.00267857C10.9807 0.00267857 10.6806 0.302793 10.6806 0.673993C10.6806 1.04454 10.9807 1.34531 11.3519 1.34531H13.7075L8.55431 6.49902C8.29181 6.76152 8.29181 7.18574 8.55431 7.44825C8.68523 7.57916 8.85711 7.64501 9.02897 7.64501C9.20083 7.64501 9.37206 7.57916 9.50351 7.44825L14.6572 2.29396V4.65156C14.6572 5.02276 14.9587 5.32288 15.3285 5.32288C15.6997 5.32288 15.9999 5.02211 15.9999 4.65156V0.674136C15.9999 0.302936 15.6997 0.00282143 15.3285 0.00282143H11.3517L11.3519 0.00267857Z" fill="#FD4370"/>
</svg>
